<svg width="37" height="37" viewBox="0 0 37 37" fill="none" xmlns="http://www.w3.org/2000/svg">
    <path d="M18.4999 3.08333C27.0145 3.08333 33.9166 9.98537 33.9166 18.5C33.9166 27.0146 27.0145 33.9167 18.4999 33.9167C9.98529 33.9167 3.08325 27.0146 3.08325 18.5C3.08325 9.98537 9.98529 3.08333 18.4999 3.08333ZM19.9429 11.7922C19.4434 10.4587 17.5564 10.4587 17.0569 11.7922L12.4319 24.1255C12.2886 24.5083 12.303 24.9322 12.4721 25.3043C12.6412 25.6763 12.9512 25.966 13.3338 26.1097L13.5049 26.1636C13.8717 26.2541 14.259 26.2068 14.5932 26.0306C14.9275 25.8544 15.1853 25.5616 15.3179 25.2078L16.0995 23.125H20.9003L21.6819 25.2078C21.7491 25.4024 21.8545 25.5816 21.9921 25.7348C22.1296 25.888 22.2965 26.0122 22.4828 26.0998C22.6691 26.1875 22.871 26.237 23.0768 26.2453C23.2825 26.2537 23.4878 26.2207 23.6806 26.1484C23.8734 26.0761 24.0497 25.966 24.1992 25.8244C24.3487 25.6828 24.4684 25.5128 24.5511 25.3242C24.6338 25.1357 24.6779 24.9325 24.6808 24.7266C24.6837 24.5207 24.6453 24.3163 24.5679 24.1255L19.9429 11.7922ZM18.4999 16.724L19.744 20.0417H17.2558L18.4999 16.724Z" fill="black"/>
</svg>
