<svg width="223" height="223" viewBox="0 0 223 223" fill="none" xmlns="http://www.w3.org/2000/svg">
<circle cx="111.5" cy="111.5" r="111.5" fill="#F5DAC6"/>
<path d="M87.3312 177.667C85.869 177.713 84.2449 177.345 82.4588 176.561C81.653 176.207 81.0555 175.816 80.6664 175.389C80.258 174.97 79.9902 174.54 79.8631 174.1C79.736 173.659 79.7207 173.22 79.817 172.782C79.8939 172.351 80.0179 171.941 80.1889 171.552C80.5132 170.813 80.8673 170.079 81.2512 169.351C81.6292 168.636 82.0098 167.842 82.393 166.969C82.6171 166.459 82.8151 165.953 82.987 165.452C83.1397 164.958 83.2507 164.486 83.3202 164.036L84.6698 164.629L84.4659 166.461L84.6673 166.55C84.9035 166.413 85.1762 166.285 85.4854 166.164C85.7887 166.057 86.1235 165.988 86.4897 165.956C86.8559 165.925 87.2573 165.941 87.6939 166.005C88.1171 166.062 88.5771 166.2 89.074 166.418C89.5709 166.636 89.998 166.904 90.3554 167.221C90.7068 167.552 90.981 167.912 91.1778 168.303C91.3613 168.688 91.4607 169.1 91.476 169.539C91.4855 169.992 91.3901 170.447 91.1896 170.903C90.9243 171.507 90.5667 171.975 90.117 172.306C89.6539 172.632 89.1522 172.844 88.6121 172.943C88.072 173.042 87.5106 173.044 86.9278 172.948C86.3317 172.847 85.7718 172.681 85.248 172.451C84.8317 172.268 84.4855 172.108 84.2094 171.971C83.9198 171.828 83.6869 171.702 83.5107 171.592C83.3152 171.49 83.1562 171.397 83.0337 171.311C82.9053 171.238 82.7903 171.172 82.6887 171.111C82.5735 171.301 82.4767 171.467 82.3984 171.609C82.3201 171.75 82.2308 171.935 82.1306 172.164C81.9655 172.54 81.8672 172.873 81.8358 173.164C81.8043 173.454 81.8502 173.715 81.9734 173.945C82.0772 174.183 82.2688 174.403 82.5482 174.606C82.8276 174.808 83.1889 175.007 83.632 175.202C83.8872 175.314 84.1781 175.417 84.5046 175.513C84.8312 175.608 85.1666 175.683 85.5108 175.738C85.8492 175.807 86.1964 175.855 86.5524 175.883C86.8951 175.905 87.2138 175.909 87.5086 175.894L87.3312 177.667ZM83.2725 169.782C83.374 169.842 83.4793 169.913 83.5884 169.993C83.6974 170.073 83.843 170.16 84.0252 170.256C84.1938 170.347 84.4028 170.454 84.6521 170.58C84.8879 170.699 85.1871 170.839 85.5497 170.998C86.3823 171.363 87.1119 171.508 87.7385 171.43C88.3517 171.347 88.8145 170.95 89.127 170.238C89.3629 169.701 89.3517 169.215 89.0936 168.782C88.8221 168.342 88.3842 167.99 87.7799 167.724C87.3367 167.53 86.9237 167.412 86.5407 167.372C86.1385 167.34 85.7812 167.351 85.4687 167.406C85.1369 167.469 84.8529 167.568 84.6167 167.705C84.3612 167.849 84.149 168.004 83.98 168.17L83.2725 169.782Z" fill="black"/>
<path d="M72.6027 160.448C72.9775 159.978 73.1567 159.577 73.1401 159.245C73.1121 158.904 72.949 158.614 72.6508 158.376C72.4673 158.23 72.2804 158.1 72.0901 157.986C71.8998 157.871 71.6568 157.753 71.3611 157.629L72.0874 156.295C72.2386 156.341 72.4082 156.41 72.5962 156.504C72.7933 156.586 72.9916 156.678 73.1911 156.781C73.3905 156.884 73.5808 156.998 73.762 157.124C73.9523 157.238 74.1162 157.35 74.2538 157.46C74.8731 157.953 75.2428 158.501 75.3629 159.104C75.4738 159.717 75.2367 160.391 74.6515 161.125L66.491 171.36L64.9085 170.098L72.6027 160.448Z" fill="black"/>
<path d="M57.7433 158.035L56.9398 156.933L57.8976 155.744L57.781 155.584C57.0855 155.601 56.4275 155.446 55.8071 155.118C55.1749 154.798 54.6255 154.318 54.1589 153.678C53.174 152.327 52.8188 151.043 53.0935 149.827C53.3563 148.619 54.3114 147.414 55.9588 146.213C56.741 145.643 57.5342 145.237 58.3384 144.996C59.122 144.751 59.8902 144.672 60.643 144.759C61.3753 144.842 62.0759 145.094 62.7449 145.513C63.4053 145.921 63.9991 146.487 64.5261 147.21C64.6989 147.447 64.8469 147.675 64.97 147.893C65.0964 148.092 65.1964 148.291 65.27 148.491C65.3554 148.683 65.4348 148.879 65.5084 149.08C65.5701 149.289 65.6302 149.508 65.6887 149.738L69.4397 147.004L70.632 148.639L57.7433 158.035ZM55.8177 153.041C56.3361 153.752 56.92 154.179 57.5693 154.323C58.2186 154.467 58.9755 154.36 59.8399 154.002L64.142 150.866C64.1329 150.455 64.0651 150.05 63.9385 149.653C63.8119 149.255 63.5671 148.807 63.2042 148.309C62.5044 147.349 61.6417 146.826 60.6161 146.739C59.5905 146.651 58.4555 147.061 57.2111 147.968C56.2037 148.703 55.5447 149.492 55.234 150.335C54.9233 151.179 55.1179 152.081 55.8177 153.041Z" fill="black"/>
<path d="M54.9182 127.977L48.8299 129.884C48.2281 130.073 47.7234 130.277 47.3158 130.497C46.8899 130.707 46.5628 130.963 46.3347 131.265C46.1021 131.553 45.9707 131.894 45.9403 132.288C45.9056 132.668 45.9694 133.117 46.1316 133.634C46.2456 133.998 46.4204 134.335 46.6559 134.646C46.8915 134.956 47.1673 135.223 47.4833 135.447C47.7993 135.671 48.1512 135.837 48.5388 135.946C48.9125 136.06 49.3107 136.104 49.7332 136.079L56.7662 133.876L57.3713 135.808L42.6755 140.411L42.0704 138.48L47.109 136.902L47.0366 136.671C46.4013 136.409 45.8375 136.032 45.3455 135.541C44.8534 135.049 44.4715 134.37 44.1996 133.502C43.9892 132.83 43.8842 132.225 43.8847 131.687C43.8712 131.153 44.003 130.666 44.28 130.226C44.5431 129.79 44.9654 129.397 45.547 129.045C46.1146 128.698 46.8672 128.378 47.805 128.084L54.3131 126.046L54.9182 127.977Z" fill="black"/>
<path d="M42.2008 117.067C41.5892 115.739 41.2974 114.099 41.3255 112.148C41.3382 111.268 41.4656 110.566 41.7079 110.042C41.9356 109.502 42.2276 109.088 42.5838 108.8C42.94 108.512 43.3387 108.327 43.7799 108.245C44.2067 108.149 44.6327 108.104 45.058 108.11C45.8646 108.121 46.6781 108.162 47.4985 108.233C48.3042 108.303 49.1837 108.345 50.137 108.359C50.6942 108.367 51.2372 108.353 51.7657 108.316C52.2799 108.265 52.7577 108.184 53.1994 108.073L53.1782 109.547L51.4104 110.071L51.4073 110.291C51.6249 110.456 51.8494 110.657 52.0807 110.895C52.2973 111.133 52.4912 111.414 52.6626 111.739C52.8339 112.065 52.9752 112.441 53.0864 112.868C53.1978 113.28 53.2496 113.757 53.2418 114.3C53.234 114.843 53.1535 115.34 53.0003 115.793C52.8324 116.245 52.6067 116.638 52.3232 116.971C52.04 117.29 51.699 117.542 51.3003 117.726C50.8869 117.911 50.4309 118 49.9323 117.993C49.2724 117.983 48.7024 117.836 48.2225 117.55C47.7428 117.25 47.3522 116.87 47.0508 116.411C46.7493 115.952 46.5294 115.436 46.391 114.862C46.2528 114.273 46.1878 113.692 46.196 113.121C46.2026 112.666 46.2154 112.285 46.2345 111.977C46.2538 111.655 46.2796 111.391 46.3119 111.186C46.3297 110.966 46.3543 110.783 46.3858 110.637C46.4026 110.491 46.4191 110.359 46.4355 110.242C46.2159 110.209 46.0256 110.184 45.8645 110.167C45.7034 110.15 45.4982 110.14 45.2489 110.137C44.8382 110.131 44.493 110.17 44.2131 110.254C43.9332 110.338 43.7111 110.481 43.5468 110.684C43.3681 110.872 43.2396 111.134 43.1614 111.471C43.0833 111.807 43.0407 112.217 43.0337 112.701C43.0297 112.98 43.0473 113.288 43.0864 113.626C43.1256 113.964 43.1867 114.302 43.2698 114.641C43.3383 114.979 43.4288 115.318 43.5412 115.657C43.6539 115.981 43.7744 116.276 43.9025 116.542L42.2008 117.067ZM47.8873 110.263C47.871 110.38 47.8472 110.504 47.8159 110.636C47.7847 110.767 47.7603 110.936 47.7427 111.141C47.7253 111.331 47.7072 111.565 47.6885 111.844C47.6701 112.108 47.658 112.438 47.6523 112.833C47.6392 113.743 47.7901 114.471 48.1049 115.018C48.4199 115.551 48.9661 115.823 49.7433 115.834C50.3299 115.842 50.7729 115.643 51.0721 115.237C51.3715 114.816 51.526 114.275 51.5354 113.615C51.5424 113.131 51.4899 112.705 51.3778 112.337C51.2513 111.954 51.102 111.629 50.9298 111.362C50.7432 111.081 50.541 110.858 50.3234 110.694C50.0913 110.514 49.8658 110.379 49.6471 110.288L47.8873 110.263Z" fill="black"/>
<path d="M56.827 92.9482L50.949 90.5829C50.3776 90.353 49.8632 90.1776 49.4059 90.0568C48.9486 89.936 48.5442 89.8998 48.1928 89.9481C47.8277 89.9909 47.5169 90.1346 47.2604 90.3792C46.9958 90.6047 46.7704 90.9488 46.5842 91.4114C46.294 92.1325 46.2545 92.8201 46.4656 93.4742C46.6685 94.1092 47.0419 94.6547 47.5856 95.1107L54.7902 98.0098L54.0346 99.8875L43.3196 95.5757L43.837 94.2899L45.4135 94.4975L45.4956 94.2934C45.181 93.6609 44.9727 93 44.8706 92.3107C44.7604 91.6024 44.8805 90.8128 45.2309 89.942C45.5266 89.2072 45.9294 88.6579 46.4395 88.294C46.955 87.9165 47.6322 87.7463 48.4709 87.7835C48.0093 87.1234 47.7207 86.4065 47.6052 85.6328C47.4897 84.8591 47.588 84.0844 47.9001 83.3089C48.1629 82.6558 48.4595 82.1348 48.7898 81.746C49.1256 81.3436 49.5347 81.0735 50.0171 80.9356C50.4994 80.7977 51.0809 80.7866 51.7616 80.9024C52.4422 81.0182 53.2588 81.2678 54.2112 81.651L60.3749 84.1313L59.6193 86.009L53.4556 83.5287C52.9114 83.3097 52.4283 83.1548 52.0063 83.0641C51.5898 82.9597 51.2195 82.9371 50.8953 82.9964C50.5574 83.0502 50.2671 83.2021 50.0241 83.4522C49.7731 83.6831 49.5518 84.0367 49.3601 84.513C49.048 85.2885 49.0058 85.9829 49.2333 86.5962C49.4608 87.2095 49.9444 87.7756 50.6841 88.2946L57.5826 91.0705L56.827 92.9482Z" fill="black"/>
<path d="M57.3857 70.2768C57.825 68.8814 58.7101 67.4706 60.0408 66.0443C60.6411 65.4009 61.2072 64.9662 61.739 64.7402C62.27 64.4935 62.7643 64.383 63.2218 64.4086C63.6793 64.4343 64.0989 64.565 64.4806 64.8008C64.8617 65.0159 65.2077 65.2686 65.5187 65.5587C66.1085 66.109 66.6836 66.6858 67.2442 67.289C67.794 67.8822 68.4174 68.5039 69.1144 69.1543C69.5219 69.5345 69.9337 69.8886 70.3498 70.2167C70.7652 70.5239 71.1737 70.7848 71.5755 70.9992L70.5699 72.0769L68.9079 71.2784L68.7578 71.4393C68.8086 71.7073 68.8397 72.0072 68.8512 72.3388C68.852 72.6605 68.8067 72.9993 68.7152 73.3553C68.6238 73.7113 68.4759 74.0848 68.2715 74.4759C68.0772 74.8562 67.7949 75.2447 67.4247 75.6415C67.0545 76.0383 66.6607 76.3529 66.2433 76.5852C65.8151 76.8076 65.3841 76.9471 64.9502 77.0036C64.5264 77.0495 64.1046 77.007 63.685 76.8763C63.2547 76.7355 62.8572 76.4951 62.4926 76.1549C62.01 75.7046 61.6868 75.2125 61.523 74.6786C61.3693 74.1339 61.3349 73.5903 61.4198 73.0478C61.5048 72.5052 61.6888 71.9748 61.9717 71.4565C62.2647 70.9275 62.6063 70.4539 62.9965 70.0357C63.3067 69.7032 63.5722 69.4294 63.793 69.2142C64.0239 68.9883 64.2201 68.8103 64.3816 68.6801C64.5424 68.5293 64.6836 68.4102 64.8051 68.323C64.9158 68.2258 65.0166 68.1393 65.1074 68.0635C64.9665 67.892 64.8421 67.7458 64.7342 67.625C64.6262 67.5042 64.4811 67.3588 64.2988 67.1887C63.9985 66.9085 63.7165 66.7056 63.4527 66.5798C63.1889 66.4541 62.928 66.4112 62.67 66.4513C62.4112 66.4706 62.1399 66.5786 61.8562 66.7753C61.5725 66.9719 61.2655 67.2471 60.9353 67.601C60.7452 67.8048 60.5512 68.045 60.3532 68.3216C60.1553 68.5983 59.9734 68.89 59.8076 69.1967C59.6311 69.4933 59.4707 69.805 59.3264 70.1317C59.192 70.4477 59.0831 70.7472 58.9995 71.0303L57.3857 70.2768ZM66.169 69.054C66.0783 69.1298 65.9771 69.206 65.8656 69.2825C65.7541 69.359 65.623 69.4673 65.4722 69.6074C65.3314 69.7368 65.1606 69.8984 64.9598 70.0921C64.7689 70.2752 64.5385 70.5115 64.2683 70.801C63.648 71.4659 63.2707 72.1068 63.1364 72.7237C63.0121 73.3299 63.2342 73.8981 63.8025 74.4284C64.2315 74.8286 64.6933 74.9786 65.1879 74.8785C65.6925 74.7676 66.17 74.4709 66.6202 73.9883C66.9504 73.6344 67.1977 73.2834 67.362 72.9352C67.5256 72.5664 67.6332 72.2254 67.6846 71.9123C67.7353 71.5785 67.7352 71.2775 67.6844 71.0095C67.6329 70.7207 67.5567 70.4691 67.4559 70.2547L66.169 69.054Z" fill="black"/>
<path d="M70.9084 56.7772L72.5753 55.7499L71.3519 53.7646L72.798 52.2533L74.2984 54.6881L77.2576 52.8645L78.1579 54.3254L75.1986 56.149L78.2918 61.1685C78.7766 61.9551 79.2189 62.4492 79.6187 62.6507C80.0185 62.8522 80.4619 62.803 80.9489 62.5029C81.2611 62.3105 81.5228 62.1062 81.734 61.8899C81.9501 61.6534 82.1858 61.3789 82.4412 61.0665L83.5847 62.0415C83.2929 62.4625 82.9506 62.8716 82.5578 63.2686C82.1853 63.6705 81.7368 64.033 81.2124 64.3562C80.3383 64.8948 79.5678 65.0423 78.9008 64.7986C78.2464 64.5473 77.5882 63.8847 76.9265 62.8109L73.4755 57.2108L71.8086 58.238L70.9084 56.7772Z" fill="black"/>
<path d="M97.8123 57.3446L96.1243 51.192C95.9574 50.5838 95.7714 50.0721 95.5662 49.6569C95.3713 49.2237 95.1271 48.8877 94.8334 48.6489C94.5539 48.4062 94.2179 48.2626 93.8255 48.2182C93.4473 48.1699 92.9965 48.2175 92.4732 48.3611C92.1054 48.462 91.7622 48.6246 91.4435 48.8489C91.1248 49.0732 90.848 49.3393 90.6131 49.6471C90.3782 49.9549 90.1992 50.3005 90.0763 50.6841C89.9496 51.0534 89.891 51.4497 89.9006 51.8729L91.8506 58.9803L89.8987 59.5158L85.8242 44.6646L87.776 44.1291L89.173 49.2209L89.4064 49.1569C89.691 48.5313 90.0877 47.9814 90.5964 47.5073C91.105 47.0331 91.7978 46.6757 92.6748 46.4352C93.3537 46.2489 93.962 46.1656 94.4997 46.1854C95.0336 46.191 95.5155 46.3402 95.9456 46.6328C96.3718 46.9113 96.75 47.3474 97.0802 47.9412C97.4066 48.5209 97.6997 49.2845 97.9597 50.2322L99.7642 56.8091L97.8123 57.3446Z" fill="black"/>
<path d="M122.825 46.1464C124.26 45.8634 125.922 45.9642 127.812 46.4487C128.664 46.6673 129.317 46.9558 129.77 47.3143C130.241 47.6622 130.575 48.0431 130.772 48.4569C130.969 48.8707 131.055 49.3017 131.031 49.7498C131.025 50.1873 130.969 50.612 130.863 51.024C130.663 51.8054 130.432 52.5866 130.171 53.3676C129.914 54.1344 129.667 54.9796 129.43 55.903C129.292 56.4429 129.178 56.974 129.09 57.4964C129.019 58.0082 128.986 58.4918 128.99 58.9471L127.562 58.581L127.467 56.7395L127.254 56.6849C127.043 56.8579 126.795 57.0289 126.509 57.198C126.227 57.3528 125.908 57.4753 125.552 57.5657C125.195 57.656 124.797 57.7052 124.356 57.7132C123.929 57.7248 123.452 57.6632 122.927 57.5284C122.401 57.3936 121.936 57.1987 121.532 56.9437C121.132 56.6745 120.803 56.363 120.545 56.0093C120.302 55.6592 120.137 55.2687 120.051 54.8377C119.968 54.3926 119.989 53.9285 120.113 53.4455C120.277 52.8061 120.554 52.2867 120.944 51.8871C121.348 51.4911 121.809 51.2004 122.326 51.015C122.843 50.8296 123.396 50.7369 123.987 50.7369C124.592 50.7406 125.171 50.8135 125.725 50.9556C126.165 51.0685 126.533 51.1703 126.828 51.2611C127.137 51.3554 127.387 51.4423 127.579 51.5217C127.788 51.5906 127.96 51.6574 128.095 51.7223C128.233 51.7729 128.358 51.8199 128.468 51.8633C128.551 51.6574 128.619 51.4782 128.674 51.3256C128.728 51.173 128.786 50.9759 128.848 50.7344C128.95 50.3366 128.993 49.9918 128.977 49.7C128.961 49.4082 128.873 49.1586 128.715 48.9514C128.574 48.7335 128.349 48.5472 128.04 48.3924C127.732 48.2375 127.343 48.1 126.874 47.9798C126.604 47.9105 126.301 47.8553 125.963 47.8142C125.625 47.773 125.282 47.7531 124.933 47.7546C124.588 47.7418 124.238 47.7504 123.882 47.7802C123.54 47.8137 123.225 47.8616 122.937 47.9239L122.825 46.1464ZM128.107 53.2698C127.997 53.2264 127.882 53.1741 127.761 53.1129C127.64 53.0517 127.483 52.9885 127.287 52.9233C127.106 52.8617 126.883 52.7892 126.616 52.7058C126.364 52.626 126.046 52.5369 125.663 52.4386C124.782 52.2127 124.039 52.1886 123.433 52.3664C122.841 52.5478 122.449 53.0149 122.256 53.7679C122.11 54.3362 122.2 54.8134 122.525 55.1996C122.864 55.5894 123.353 55.8662 123.992 56.0302C124.461 56.1504 124.888 56.1992 125.272 56.1767C125.674 56.1435 126.025 56.0745 126.324 55.9696C126.642 55.8541 126.906 55.7099 127.117 55.5368C127.345 55.3532 127.53 55.1658 127.67 54.9746L128.107 53.2698Z" fill="black"/>
<path d="M140.148 60.7518C139.854 61.2765 139.743 61.7014 139.813 62.0264C139.896 62.3586 140.103 62.6178 140.436 62.8041C140.641 62.9188 140.846 63.0171 141.053 63.0989C141.259 63.1808 141.518 63.2586 141.83 63.3323L141.329 64.7666C141.173 64.7461 140.994 64.7049 140.793 64.643C140.585 64.5939 140.375 64.5348 140.161 64.4657C139.948 64.3966 139.742 64.3147 139.543 64.22C139.336 64.1381 139.156 64.0542 139.003 63.9682C138.312 63.5813 137.858 63.1004 137.642 62.5256C137.433 61.938 137.558 61.2347 138.017 60.4156L144.412 48.9942L146.178 49.983L140.148 60.7518Z" fill="black"/>
<path d="M155.202 60.7271L156.173 61.6846L155.421 63.0124L155.562 63.1514C156.245 63.022 156.92 63.069 157.585 63.2924C158.261 63.5053 158.881 63.8898 159.445 64.4457C160.635 65.6195 161.194 66.8289 161.12 68.074C161.056 69.3086 160.309 70.6519 158.878 72.1038C158.198 72.7931 157.481 73.322 156.727 73.6905C155.993 74.0587 155.248 74.2611 154.491 74.2977C153.755 74.3341 153.023 74.1994 152.294 73.8935C151.577 73.5979 150.899 73.1361 150.262 72.508C150.053 72.3021 149.87 72.1012 149.713 71.9052C149.556 71.73 149.425 71.5495 149.32 71.3636C149.205 71.1881 149.095 71.0074 148.99 70.8215C148.895 70.6251 148.8 70.4184 148.705 70.2012L145.447 73.5072L144.005 72.0863L155.202 60.7271ZM157.911 65.3435C157.284 64.7258 156.639 64.3985 155.975 64.3618C155.311 64.3251 154.581 64.5533 153.786 65.0465L150.049 68.8381C150.124 69.2421 150.257 69.63 150.446 70.002C150.636 70.374 150.95 70.7762 151.388 71.2087C152.234 72.0427 153.17 72.4197 154.197 72.3397C155.223 72.2597 156.276 71.6713 157.358 70.5746C158.233 69.6867 158.755 68.8014 158.925 67.9186C159.095 67.0359 158.757 66.1775 157.911 65.3435Z" fill="black"/>
<path d="M162.858 89.9303L168.557 87.0622C169.12 86.7787 169.585 86.4955 169.952 86.2125C170.338 85.936 170.619 85.6302 170.795 85.2953C170.978 84.9734 171.053 84.6157 171.019 84.2223C170.992 83.8419 170.856 83.4093 170.612 82.9246C170.441 82.584 170.214 82.2796 169.931 82.0114C169.648 81.7432 169.333 81.5243 168.985 81.3546C168.637 81.185 168.262 81.0778 167.862 81.0329C167.475 80.9814 167.075 81.0021 166.662 81.095L160.079 84.4082L159.169 82.6002L172.925 75.6773L173.835 77.4852L169.118 79.8588L169.227 80.075C169.897 80.2307 170.514 80.5111 171.079 80.9163C171.644 81.3215 172.131 81.9302 172.54 82.7425C172.856 83.3713 173.058 83.9513 173.145 84.4824C173.244 85.0068 173.193 85.5088 172.991 85.9881C172.802 86.4608 172.449 86.9176 171.932 87.3584C171.428 87.7927 170.737 88.2306 169.86 88.6724L163.768 91.7382L162.858 89.9303Z" fill="black"/>
<path d="M177.174 98.6364C177.993 99.8488 178.546 101.42 178.834 103.349C178.964 104.219 178.952 104.933 178.798 105.49C178.661 106.059 178.44 106.515 178.135 106.857C177.83 107.199 177.467 107.446 177.045 107.598C176.639 107.762 176.226 107.876 175.805 107.939C175.007 108.058 174.198 108.149 173.377 108.212C172.571 108.274 171.696 108.375 170.753 108.515C170.202 108.598 169.668 108.7 169.153 108.821C168.654 108.955 168.195 109.113 167.777 109.294L167.56 107.836L169.219 107.032L169.187 106.814C168.945 106.687 168.691 106.525 168.424 106.327C168.172 106.128 167.935 105.882 167.713 105.588C167.492 105.295 167.291 104.947 167.112 104.544C166.936 104.155 166.807 103.692 166.727 103.155C166.647 102.619 166.646 102.115 166.724 101.643C166.816 101.17 166.975 100.746 167.201 100.371C167.429 100.011 167.725 99.7069 168.088 99.4598C168.466 99.2105 168.902 99.0491 169.395 98.9754C170.048 98.8779 170.634 98.9312 171.154 99.1353C171.676 99.3539 172.123 99.6653 172.494 100.07C172.866 100.474 173.167 100.948 173.396 101.492C173.628 102.05 173.786 102.613 173.871 103.178C173.938 103.628 173.987 104.006 174.018 104.313C174.051 104.634 174.068 104.899 174.07 105.106C174.088 105.326 174.093 105.51 174.086 105.66C174.093 105.807 174.098 105.94 174.101 106.058C174.323 106.054 174.514 106.048 174.676 106.039C174.838 106.029 175.042 106.006 175.289 105.969C175.695 105.909 176.029 105.814 176.292 105.686C176.554 105.558 176.75 105.38 176.88 105.153C177.026 104.939 177.11 104.659 177.133 104.315C177.155 103.97 177.131 103.559 177.059 103.08C177.018 102.805 176.951 102.503 176.858 102.176C176.764 101.849 176.649 101.525 176.512 101.204C176.39 100.882 176.246 100.562 176.08 100.246C175.916 99.944 175.749 99.6723 175.58 99.4307L177.174 98.6364ZM172.665 106.272C172.662 106.154 172.665 106.028 172.675 105.893C172.684 105.758 172.681 105.588 172.665 105.383C172.652 105.192 172.631 104.958 172.605 104.68C172.58 104.417 172.539 104.089 172.48 103.697C172.346 102.798 172.079 102.104 171.68 101.615C171.283 101.14 170.7 100.96 169.931 101.075C169.351 101.162 168.946 101.43 168.716 101.88C168.489 102.344 168.424 102.902 168.522 103.555C168.593 104.033 168.714 104.445 168.884 104.791C169.071 105.148 169.271 105.445 169.484 105.68C169.714 105.927 169.95 106.114 170.191 106.242C170.449 106.381 170.693 106.478 170.924 106.532L172.665 106.272Z" fill="black"/>
<path d="M166.647 124.806L172.83 126.188C173.431 126.323 173.967 126.412 174.438 126.458C174.909 126.503 175.314 126.473 175.653 126.368C176.006 126.267 176.29 126.075 176.503 125.792C176.728 125.527 176.894 125.151 177.003 124.664C177.173 123.905 177.1 123.22 176.786 122.609C176.483 122.015 176.026 121.538 175.416 121.176L167.837 119.482L168.278 117.506L179.55 120.026L179.248 121.378L177.659 121.429L177.611 121.644C178.024 122.217 178.336 122.835 178.548 123.499C178.772 124.18 178.781 124.979 178.577 125.895C178.404 126.668 178.095 127.275 177.651 127.717C177.203 128.173 176.563 128.45 175.729 128.55C176.291 129.126 176.692 129.787 176.931 130.532C177.171 131.276 177.199 132.057 177.017 132.873C176.863 133.56 176.655 134.122 176.392 134.559C176.126 135.01 175.766 135.343 175.312 135.557C174.859 135.772 174.286 135.877 173.596 135.873C172.906 135.869 172.059 135.755 171.058 135.531L164.574 134.081L165.015 132.106L171.499 133.555C172.072 133.683 172.573 133.758 173.004 133.779C173.432 133.815 173.801 133.777 174.112 133.666C174.436 133.558 174.698 133.361 174.898 133.075C175.108 132.807 175.269 132.422 175.381 131.921C175.563 131.105 175.493 130.413 175.169 129.845C174.845 129.276 174.276 128.796 173.462 128.404L166.205 126.781L166.647 124.806Z" fill="black"/>
<path d="M169.767 147.269C169.56 148.717 168.915 150.252 167.833 151.875C167.344 152.607 166.856 153.128 166.368 153.437C165.884 153.767 165.414 153.956 164.958 154.004C164.503 154.053 164.068 153.992 163.653 153.821C163.242 153.671 162.859 153.477 162.506 153.242C161.834 152.794 161.173 152.318 160.523 151.814C159.884 151.317 159.168 150.805 158.375 150.276C157.911 149.967 157.448 149.684 156.984 149.427C156.524 149.192 156.079 149 155.648 148.854L156.465 147.627L158.235 148.146L158.357 147.963C158.263 147.707 158.184 147.416 158.119 147.091C158.066 146.773 158.056 146.432 158.089 146.066C158.121 145.699 158.207 145.307 158.345 144.888C158.475 144.481 158.691 144.052 158.992 143.601C159.293 143.149 159.631 142.775 160.005 142.478C160.391 142.189 160.794 141.982 161.213 141.856C161.624 141.742 162.047 141.715 162.482 141.776C162.93 141.846 163.361 142.019 163.776 142.295C164.325 142.661 164.723 143.095 164.972 143.595C165.211 144.108 165.333 144.638 165.337 145.188C165.341 145.737 165.246 146.29 165.051 146.847C164.847 147.417 164.587 147.939 164.269 148.415C164.017 148.794 163.8 149.107 163.616 149.355C163.425 149.615 163.26 149.823 163.122 149.977C162.988 150.152 162.868 150.292 162.762 150.398C162.669 150.512 162.583 150.614 162.506 150.703C162.673 150.85 162.819 150.974 162.945 151.075C163.071 151.177 163.238 151.297 163.445 151.436C163.787 151.663 164.098 151.818 164.379 151.899C164.66 151.981 164.924 151.981 165.172 151.899C165.424 151.838 165.675 151.688 165.923 151.448C166.171 151.208 166.429 150.887 166.698 150.484C166.852 150.252 167.005 149.984 167.155 149.679C167.306 149.373 167.438 149.056 167.552 148.727C167.678 148.405 167.786 148.072 167.876 147.726C167.957 147.392 168.016 147.079 168.053 146.786L169.767 147.269ZM161.298 149.898C161.375 149.808 161.463 149.717 161.56 149.623C161.658 149.53 161.77 149.401 161.896 149.239C162.014 149.088 162.156 148.901 162.323 148.677C162.482 148.466 162.671 148.195 162.89 147.866C163.395 147.109 163.663 146.416 163.696 145.785C163.721 145.167 163.409 144.642 162.763 144.211C162.275 143.886 161.795 143.812 161.323 143.991C160.843 144.182 160.42 144.553 160.053 145.102C159.785 145.504 159.598 145.891 159.492 146.261C159.39 146.651 159.339 147.005 159.339 147.323C159.343 147.66 159.392 147.957 159.486 148.213C159.583 148.49 159.699 148.726 159.833 148.921L161.298 149.898Z" fill="black"/>
<path d="M158.609 162.78L157.13 164.064L158.659 165.825L157.477 167.55L155.602 165.391L152.977 167.669L151.852 166.374L154.477 164.095L150.612 159.643C150.006 158.945 149.49 158.529 149.062 158.395C148.635 158.261 148.206 158.381 147.774 158.756C147.497 158.997 147.272 159.241 147.098 159.488C146.923 159.757 146.735 160.066 146.534 160.415L145.247 159.638C145.467 159.176 145.739 158.716 146.062 158.261C146.365 157.804 146.748 157.374 147.214 156.97C147.989 156.297 148.725 156.027 149.423 156.159C150.109 156.301 150.866 156.848 151.693 157.801L156.005 162.768L157.484 161.484L158.609 162.78Z" fill="black"/>
<path d="M131.969 166.577L134.632 172.375C134.895 172.948 135.161 173.423 135.431 173.8C135.693 174.195 135.989 174.487 136.317 174.676C136.632 174.87 136.987 174.957 137.382 174.937C137.763 174.924 138.2 174.804 138.693 174.577C139.04 174.418 139.352 174.202 139.63 173.929C139.908 173.656 140.138 173.349 140.32 173.007C140.502 172.665 140.623 172.295 140.682 171.897C140.747 171.512 140.741 171.111 140.663 170.695L137.588 163.998L139.427 163.153L145.853 177.148L144.013 177.993L141.81 173.194L141.59 173.295C141.411 173.959 141.108 174.566 140.683 175.116C140.258 175.666 139.632 176.131 138.806 176.51C138.166 176.804 137.579 176.985 137.046 177.052C136.518 177.133 136.018 177.064 135.546 176.845C135.081 176.639 134.637 176.27 134.215 175.738C133.799 175.219 133.386 174.513 132.976 173.62L130.13 167.422L131.969 166.577Z" fill="black"/>
<path d="M110.296 87L104.222 105.222H86L101.185 117.37L95.1111 135.593L110.296 123.444L125.482 135.593L119.407 117.37L134.593 105.222H116.37L110.296 87Z" fill="#E75234"/>
</svg>
