<svg width="37" height="37" viewBox="0 0 37 37" fill="none" xmlns="http://www.w3.org/2000/svg">
    <path d="M18.5 3.08331C27.0147 3.08331 33.9167 9.98536 33.9167 18.5C33.9167 27.0146 27.0147 33.9166 18.5 33.9166C9.98542 33.9166 3.08337 27.0146 3.08337 18.5C3.08337 9.98536 9.98542 3.08331 18.5 3.08331ZM20.0417 10.7916H15.4167C15.0078 10.7916 14.6157 10.9541 14.3266 11.2432C14.0375 11.5323 13.875 11.9244 13.875 12.3333V24.6666C13.875 25.0755 14.0375 25.4677 14.3266 25.7568C14.6157 26.0459 15.0078 26.2083 15.4167 26.2083H20.0417C20.9344 26.208 21.8079 25.9493 22.5568 25.4636C23.3058 24.9778 23.8981 24.2857 24.2624 23.4707C24.6267 22.6557 24.7474 21.7528 24.6098 20.8707C24.4723 19.9887 24.0825 19.1653 23.4873 18.5C24.0825 17.8346 24.4723 17.0112 24.6098 16.1292C24.7474 15.2472 24.6267 14.3442 24.2624 13.5292C23.8981 12.7143 23.3058 12.0222 22.5568 11.5364C21.8079 11.0506 20.9344 10.792 20.0417 10.7916ZM20.0417 20.0416C20.4506 20.0416 20.8427 20.2041 21.1318 20.4932C21.4209 20.7823 21.5834 21.1744 21.5834 21.5833L21.5726 21.7637C21.5284 22.1387 21.3481 22.4845 21.0659 22.7354C20.7838 22.9863 20.4193 23.1249 20.0417 23.125H16.9584V20.0416H20.0417ZM20.0417 13.875C20.4506 13.875 20.8427 14.0374 21.1318 14.3265C21.4209 14.6156 21.5834 15.0078 21.5834 15.4166C21.5834 15.8255 21.4209 16.2177 21.1318 16.5068C20.8427 16.7959 20.4506 16.9583 20.0417 16.9583H16.9584V13.875H20.0417Z" fill="black"/>
</svg>


