<svg width="45" height="45" viewBox="0 0 45 45" fill="none" xmlns="http://www.w3.org/2000/svg">
<path d="M24.1688 11.0249H9.58122C6.37497 11.0249 3.75 13.6499 3.75 16.8561V38.1562C3.75 40.8749 5.7 42.0374 8.08124 40.7061L15.45 36.5999C16.2375 36.1686 17.5125 36.1686 18.2812 36.5999L25.65 40.7061C28.0312 42.0374 29.9812 40.8749 29.9812 38.1562V16.8561C30 13.6499 27.375 11.0249 24.1688 11.0249Z" fill="#3C3C3C" stroke="#292D32" stroke-width="3" stroke-linecap="round" stroke-linejoin="round"/>
<path d="M30 16.8561V38.1562C30 40.8749 28.05 42.0186 25.6688 40.7061L18.3 36.5999C17.5125 36.1686 16.2375 36.1686 15.45 36.5999L8.08125 40.7061C5.7 42.0186 3.75 40.8749 3.75 38.1562V16.8561C3.75 13.6499 6.37497 11.0249 9.58122 11.0249H24.1688C27.375 11.0249 30 13.6499 30 16.8561Z" fill="#3C3C3C" stroke="#292D32" stroke-width="3" stroke-linecap="round" stroke-linejoin="round"/>
<path d="M41.25 9.58122V30.8813C41.25 33.6 39.3 34.7437 36.9188 33.4312L30 29.5687V16.8562C30 13.65 27.375 11.025 24.1688 11.025H15V9.58122C15 6.37497 17.625 3.75 20.8312 3.75H35.4188C38.625 3.75 41.25 6.37497 41.25 9.58122Z" fill="#3C3C3C" stroke="#292D32" stroke-width="3" stroke-linecap="round" stroke-linejoin="round"/>
</svg>
