<svg width="24" height="25" viewBox="0 0 24 25" fill="none" xmlns="http://www.w3.org/2000/svg">
<path fill-rule="evenodd" clip-rule="evenodd" d="M1.25 12.5C1.25 6.563 6.063 1.75 12 1.75C17.937 1.75 22.75 6.563 22.75 12.5C22.75 18.437 17.937 23.25 12 23.25C6.063 23.25 1.25 18.437 1.25 12.5ZM12 3.25C9.54675 3.25 7.19397 4.22455 5.45926 5.95926C3.72455 7.69397 2.75 10.0467 2.75 12.5C2.75 14.9533 3.72455 17.306 5.45926 19.0407C7.19397 20.7754 9.54675 21.75 12 21.75C14.4533 21.75 16.806 20.7754 18.5407 19.0407C20.2754 17.306 21.25 14.9533 21.25 12.5C21.25 10.0467 20.2754 7.69397 18.5407 5.95926C16.806 4.22455 14.4533 3.25 12 3.25Z" fill="black"/>
<path fill-rule="evenodd" clip-rule="evenodd" d="M12.286 9.25001C10.283 9.25001 8.75 10.753 8.75 12.5C8.75 14.247 10.283 15.75 12.286 15.75C12.797 15.75 13.281 15.65 13.716 15.473C13.8072 15.4358 13.9048 15.4169 14.0034 15.4174C14.1019 15.4179 14.1993 15.4378 14.2901 15.476C14.3809 15.5141 14.4633 15.5698 14.5326 15.6398C14.6019 15.7098 14.6568 15.7928 14.694 15.884C14.7312 15.9752 14.7501 16.0729 14.7496 16.1714C14.7491 16.2699 14.7292 16.3673 14.6911 16.4581C14.6529 16.5489 14.5972 16.6314 14.5272 16.7007C14.4572 16.7699 14.3742 16.8248 14.283 16.862C13.6487 17.1193 12.9705 17.2511 12.286 17.25C9.554 17.25 7.25 15.171 7.25 12.5C7.25 9.82901 9.554 7.75001 12.286 7.75001C12.9705 7.74892 13.6487 7.88069 14.283 8.13801C14.4673 8.21306 14.6143 8.35827 14.6916 8.54168C14.7688 8.72509 14.7701 8.93168 14.695 9.11601C14.6199 9.30033 14.4747 9.44729 14.2913 9.52456C14.1079 9.60182 13.9013 9.60306 13.717 9.52801C13.2625 9.34347 12.7765 9.24905 12.286 9.25001Z" fill="black"/>
</svg>
