<svg width="37" height="37" viewBox="0 0 37 37" fill="none" xmlns="http://www.w3.org/2000/svg">
    <path d="M18.5 3.08333C20.5246 3.08333 22.5293 3.48209 24.3997 4.25685C26.2702 5.03161 27.9697 6.1672 29.4013 7.59877C30.8328 9.03034 31.9684 10.7299 32.7432 12.6003C33.5179 14.4707 33.9167 16.4755 33.9167 18.5C33.9167 22.5888 32.2925 26.51 29.4013 29.4012C26.5101 32.2924 22.5888 33.9167 18.5 33.9167C16.4755 33.9167 14.4708 33.5179 12.6003 32.7431C10.7299 31.9684 9.03038 30.8328 7.59881 29.4012C4.70763 26.51 3.08337 22.5888 3.08337 18.5C3.08337 14.4112 4.70763 10.49 7.59881 7.59877C10.49 4.70758 14.4113 3.08333 18.5 3.08333ZM13.875 10.7917V26.2083H20.0417C20.8595 26.2083 21.6437 25.8835 22.222 25.3052C22.8002 24.727 23.125 23.9427 23.125 23.125V13.875C23.125 13.0572 22.8002 12.273 22.222 11.6947C21.6437 11.1165 20.8595 10.7917 20.0417 10.7917H13.875ZM16.9584 13.875H20.0417V23.125H16.9584V13.875Z" fill="black"/>
</svg>