<svg width="32" height="32" viewBox="0 0 32 32" fill="none" xmlns="http://www.w3.org/2000/svg">
<path d="M10.4013 2.66699H21.6013C25.868 2.66699 29.3346 6.13366 29.3346 10.4003V21.6003C29.3346 23.6513 28.5199 25.6183 27.0696 27.0686C25.6193 28.5189 23.6523 29.3337 21.6013 29.3337H10.4013C6.13464 29.3337 2.66797 25.867 2.66797 21.6003V10.4003C2.66797 8.34932 3.48273 6.38231 4.93301 4.93203C6.38329 3.48175 8.35029 2.66699 10.4013 2.66699ZM10.1346 5.33366C8.8616 5.33366 7.6407 5.83937 6.74052 6.73955C5.84035 7.63972 5.33464 8.86062 5.33464 10.1337V21.867C5.33464 24.5203 7.4813 26.667 10.1346 26.667H21.868C23.141 26.667 24.3619 26.1613 25.2621 25.2611C26.1623 24.3609 26.668 23.14 26.668 21.867V10.1337C26.668 7.48033 24.5213 5.33366 21.868 5.33366H10.1346ZM23.0013 7.33366C23.4433 7.33366 23.8673 7.50925 24.1798 7.82181C24.4924 8.13437 24.668 8.5583 24.668 9.00033C24.668 9.44235 24.4924 9.86628 24.1798 10.1788C23.8673 10.4914 23.4433 10.667 23.0013 10.667C22.5593 10.667 22.1353 10.4914 21.8228 10.1788C21.5102 9.86628 21.3346 9.44235 21.3346 9.00033C21.3346 8.5583 21.5102 8.13437 21.8228 7.82181C22.1353 7.50925 22.5593 7.33366 23.0013 7.33366ZM16.0013 9.33366C17.7694 9.33366 19.4651 10.036 20.7153 11.2863C21.9656 12.5365 22.668 14.2322 22.668 16.0003C22.668 17.7684 21.9656 19.4641 20.7153 20.7144C19.4651 21.9646 17.7694 22.667 16.0013 22.667C14.2332 22.667 12.5375 21.9646 11.2873 20.7144C10.037 19.4641 9.33463 17.7684 9.33463 16.0003C9.33463 14.2322 10.037 12.5365 11.2873 11.2863C12.5375 10.036 14.2332 9.33366 16.0013 9.33366ZM16.0013 12.0003C14.9404 12.0003 13.923 12.4218 13.1729 13.1719C12.4227 13.922 12.0013 14.9395 12.0013 16.0003C12.0013 17.0612 12.4227 18.0786 13.1729 18.8288C13.923 19.5789 14.9404 20.0003 16.0013 20.0003C17.0622 20.0003 18.0796 19.5789 18.8297 18.8288C19.5799 18.0786 20.0013 17.0612 20.0013 16.0003C20.0013 14.9395 19.5799 13.922 18.8297 13.1719C18.0796 12.4218 17.0622 12.0003 16.0013 12.0003Z" fill="#474747"/>
</svg>
