<svg width="50" height="50" viewBox="0 0 50 50" fill="none" xmlns="http://www.w3.org/2000/svg">
<path d="M6.25 10.4167C6.25 9.3116 6.68899 8.25179 7.47039 7.47039C8.25179 6.68899 9.3116 6.25 10.4167 6.25H39.5833C40.6884 6.25 41.7482 6.68899 42.5296 7.47039C43.311 8.25179 43.75 9.3116 43.75 10.4167V39.5833C43.75 40.6884 43.311 41.7482 42.5296 42.5296C41.7482 43.311 40.6884 43.75 39.5833 43.75H10.4167C9.3116 43.75 8.25179 43.311 7.47039 42.5296C6.68899 41.7482 6.25 40.6884 6.25 39.5833V10.4167Z" stroke="black" stroke-width="4.16667" stroke-linecap="round" stroke-linejoin="round"/>
<path d="M25.0002 25.0001C26.1052 25.0001 27.165 25.4391 27.9464 26.2205C28.7278 27.0019 29.1668 28.0617 29.1668 29.1667C29.1668 30.2718 28.7278 31.3316 27.9464 32.113C27.165 32.8944 26.1052 33.3334 25.0002 33.3334H20.8335V16.6667H25.0002C26.1052 16.6667 27.165 17.1057 27.9464 17.8871C28.7278 18.6685 29.1668 19.7283 29.1668 20.8334C29.1668 21.9385 28.7278 22.9983 27.9464 23.7797C27.165 24.5611 26.1052 25.0001 25.0002 25.0001ZM25.0002 25.0001H20.8335" stroke="black" stroke-width="4.16667" stroke-linecap="round" stroke-linejoin="round"/>
</svg>
